<?xml version="1.0" encoding="UTF-8" standalone="no"?>
<!DOCTYPE svg PUBLIC "-//W3C//DTD SVG 1.1//EN"
 "http://www.w3.org/Graphics/SVG/1.1/DTD/svg11.dtd">
<!-- Generated by graphviz version 2.44.1 (0)
 -->
<!-- Title: mon_graphe Pages: 1 -->
<svg width="479pt" height="620pt"
 viewBox="0.00 0.00 479.00 620.00" xmlns="http://www.w3.org/2000/svg" xmlns:xlink="http://www.w3.org/1999/xlink">
<g id="graph0" class="graph" transform="scale(1 1) rotate(0) translate(4 616)">
<title>mon_graphe</title>
<polygon fill="white" stroke="transparent" points="-4,4 -4,-616 475,-616 475,4 -4,4"/>
<!-- N(t) -->
<g id="node1" class="node">
<title>N(t)</title>
<text text-anchor="middle" x="146" y="-590.3" font-family="Times,serif" font-size="14.00">N(t)</text>
</g>
<!-- Demography -->
<g id="node9" class="node">
<title>Demography</title>
<polygon fill="none" stroke="black" points="171,-324 63,-324 63,-288 171,-288 171,-324"/>
<text text-anchor="middle" x="117" y="-302.3" font-family="Times,serif" font-size="14.00">Demography</text>
</g>
<!-- N(t)&#45;&gt;Demography -->
<g id="edge1" class="edge">
<title>N(t)&#45;&gt;Demography</title>
<path fill="none" stroke="#ffa3a3" d="M145,-575.98C145,-575.98 145,-334.01 145,-334.01"/>
<polygon fill="#ffa3a3" stroke="#ffa3a3" points="148.5,-334.01 145,-324.01 141.5,-334.01 148.5,-334.01"/>
</g>
<!-- Consumption -->
<g id="node10" class="node">
<title>Consumption</title>
<polygon fill="none" stroke="black" points="300.5,-324 189.5,-324 189.5,-288 300.5,-288 300.5,-324"/>
<text text-anchor="middle" x="245" y="-302.3" font-family="Times,serif" font-size="14.00">Consumption</text>
</g>
<!-- N(t)&#45;&gt;Consumption -->
<g id="edge2" class="edge">
<title>N(t)&#45;&gt;Consumption</title>
<path fill="none" stroke="#ffa3a3" d="M173.17,-588C192.01,-588 213.75,-588 213.75,-588 213.75,-588 213.75,-334.07 213.75,-334.07"/>
<polygon fill="#ffa3a3" stroke="#ffa3a3" points="217.25,-334.07 213.75,-324.07 210.25,-334.07 217.25,-334.07"/>
</g>
<!-- R(t) -->
<g id="node2" class="node">
<title>R(t)</title>
<text text-anchor="middle" x="370" y="-590.3" font-family="Times,serif" font-size="14.00">R(t)</text>
</g>
<!-- Renewal -->
<g id="node11" class="node">
<title>Renewal</title>
<polygon fill="none" stroke="black" points="408.5,-540 331.5,-540 331.5,-504 408.5,-504 408.5,-540"/>
<text text-anchor="middle" x="370" y="-518.3" font-family="Times,serif" font-size="14.00">Renewal</text>
</g>
<!-- R(t)&#45;&gt;Renewal -->
<g id="edge3" class="edge">
<title>R(t)&#45;&gt;Renewal</title>
<path fill="none" stroke="#ffcea3" d="M370,-575.83C370,-575.83 370,-550.41 370,-550.41"/>
<polygon fill="#ffcea3" stroke="#ffcea3" points="373.5,-550.41 370,-540.41 366.5,-550.41 373.5,-550.41"/>
</g>
<!-- Z(t) -->
<g id="node3" class="node">
<title>Z(t)</title>
<text text-anchor="middle" x="265" y="-590.3" font-family="Times,serif" font-size="14.00">Z(t)</text>
</g>
<!-- Z(t)&#45;&gt;Demography -->
<g id="edge4" class="edge">
<title>Z(t)&#45;&gt;Demography</title>
<path fill="none" stroke="#aaffa3" d="M237.58,-600C213.15,-600 181.25,-600 181.25,-600 181.25,-600 181.25,-306 181.25,-306 181.25,-306 180.25,-306 180.25,-306"/>
<polygon fill="#aaffa3" stroke="#aaffa3" points="181.21,-302.5 171.21,-306 181.21,-309.5 181.21,-302.5"/>
</g>
<!-- Production -->
<g id="node12" class="node">
<title>Production</title>
<polygon fill="none" stroke="black" points="402.5,-468 307.5,-468 307.5,-432 402.5,-432 402.5,-468"/>
<text text-anchor="middle" x="355" y="-446.3" font-family="Times,serif" font-size="14.00">Production</text>
</g>
<!-- Z(t)&#45;&gt;Production -->
<g id="edge5" class="edge">
<title>Z(t)&#45;&gt;Production</title>
<path fill="none" stroke="#aaffa3" d="M292.25,-600C305.88,-600 319.5,-600 319.5,-600 319.5,-600 319.5,-478.09 319.5,-478.09"/>
<polygon fill="#aaffa3" stroke="#aaffa3" points="323,-478.09 319.5,-468.09 316,-478.09 323,-478.09"/>
</g>
<!-- Taxes -->
<g id="node13" class="node">
<title>Taxes</title>
<polygon fill="none" stroke="black" points="357.5,-396 300.5,-396 300.5,-360 357.5,-360 357.5,-396"/>
<text text-anchor="middle" x="329" y="-374.3" font-family="Times,serif" font-size="14.00">Taxes</text>
</g>
<!-- Z(t)&#45;&gt;Taxes -->
<g id="edge6" class="edge">
<title>Z(t)&#45;&gt;Taxes</title>
<path fill="none" stroke="#a3d3ff" d="M292.09,-588C298.74,-588 304,-588 304,-588 304,-588 304,-406.27 304,-406.27"/>
<polygon fill="#a3d3ff" stroke="#a3d3ff" points="307.5,-406.27 304,-396.27 300.5,-406.27 307.5,-406.27"/>
</g>
<!-- S(t) -->
<g id="node4" class="node">
<title>S(t)</title>
<text text-anchor="middle" x="444" y="-590.3" font-family="Times,serif" font-size="14.00">S(t)</text>
</g>
<!-- Asabiya -->
<g id="node14" class="node">
<title>Asabiya</title>
<polygon fill="none" stroke="black" points="300,-252 228,-252 228,-216 300,-216 300,-252"/>
<text text-anchor="middle" x="264" y="-230.3" font-family="Times,serif" font-size="14.00">Asabiya</text>
</g>
<!-- S(t)&#45;&gt;Asabiya -->
<g id="edge7" class="edge">
<title>S(t)&#45;&gt;Asabiya</title>
<path fill="none" stroke="#b6a3ff" d="M429.75,-575.65C429.75,-502.29 429.75,-234 429.75,-234 429.75,-234 310.37,-234 310.37,-234"/>
<polygon fill="#b6a3ff" stroke="#b6a3ff" points="310.37,-230.5 300.37,-234 310.37,-237.5 310.37,-230.5"/>
</g>
<!-- Z(t+dt) -->
<g id="node5" class="node">
<title>Z(t+dt)</title>
<text text-anchor="middle" x="186" y="-14.3" font-family="Times,serif" font-size="14.00">Z(t+dt)</text>
</g>
<!-- N(t+dt) -->
<g id="node6" class="node">
<title>N(t+dt)</title>
<text text-anchor="middle" x="97" y="-14.3" font-family="Times,serif" font-size="14.00">N(t+dt)</text>
</g>
<!-- S(t+dt) -->
<g id="node7" class="node">
<title>S(t+dt)</title>
<text text-anchor="middle" x="318" y="-14.3" font-family="Times,serif" font-size="14.00">S(t+dt)</text>
</g>
<!-- R(t+dt) -->
<g id="node8" class="node">
<title>R(t+dt)</title>
<text text-anchor="middle" x="407" y="-14.3" font-family="Times,serif" font-size="14.00">R(t+dt)</text>
</g>
<!-- Demography&#45;&gt;Asabiya -->
<g id="edge21" class="edge">
<title>Demography&#45;&gt;Asabiya</title>
<path fill="none" stroke="black" d="M158.67,-287.83C158.67,-266.5 158.67,-234 158.67,-234 158.67,-234 217.75,-234 217.75,-234"/>
<polygon fill="black" stroke="black" points="217.75,-237.5 227.75,-234 217.75,-230.5 217.75,-237.5"/>
</g>
<!-- Leader selection -->
<g id="node15" class="node">
<title>Leader selection</title>
<polygon fill="none" stroke="black" points="134,-180 0,-180 0,-144 134,-144 134,-180"/>
<text text-anchor="middle" x="67" y="-158.3" font-family="Times,serif" font-size="14.00">Leader selection</text>
</g>
<!-- Demography&#45;&gt;Leader selection -->
<g id="edge8" class="edge">
<title>Demography&#45;&gt;Leader selection</title>
<path fill="none" stroke="#ffa3a3" d="M98.5,-287.76C98.5,-287.76 98.5,-190.09 98.5,-190.09"/>
<polygon fill="#ffa3a3" stroke="#ffa3a3" points="102,-190.09 98.5,-180.09 95,-190.09 102,-190.09"/>
</g>
<!-- Diplomacy (wars/alliances) -->
<g id="node16" class="node">
<title>Diplomacy (wars/alliances)</title>
<polygon fill="none" stroke="black" points="290,-108 82,-108 82,-72 290,-72 290,-108"/>
<text text-anchor="middle" x="186" y="-86.3" font-family="Times,serif" font-size="14.00">Diplomacy (wars/alliances)</text>
</g>
<!-- Demography&#45;&gt;Diplomacy (wars/alliances) -->
<g id="edge9" class="edge">
<title>Demography&#45;&gt;Diplomacy (wars/alliances)</title>
<path fill="none" stroke="#ffa3a3" d="M146.33,-287.96C146.33,-287.96 146.33,-118.15 146.33,-118.15"/>
<polygon fill="#ffa3a3" stroke="#ffa3a3" points="149.83,-118.15 146.33,-108.15 142.83,-118.15 149.83,-118.15"/>
</g>
<!-- Consumption&#45;&gt;Asabiya -->
<g id="edge17" class="edge">
<title>Consumption&#45;&gt;Asabiya</title>
<path fill="none" stroke="black" d="M264,-287.83C264,-287.83 264,-262.41 264,-262.41"/>
<polygon fill="black" stroke="black" points="267.5,-262.41 264,-252.41 260.5,-262.41 267.5,-262.41"/>
</g>
<!-- Consumption&#45;&gt;Diplomacy (wars/alliances) -->
<g id="edge18" class="edge">
<title>Consumption&#45;&gt;Diplomacy (wars/alliances)</title>
<path fill="none" stroke="#aaffa3" d="M208.75,-287.96C208.75,-287.96 208.75,-118.15 208.75,-118.15"/>
<polygon fill="#aaffa3" stroke="#aaffa3" points="212.25,-118.15 208.75,-108.15 205.25,-118.15 212.25,-118.15"/>
</g>
<!-- Renewal&#45;&gt;Production -->
<g id="edge11" class="edge">
<title>Renewal&#45;&gt;Production</title>
<path fill="none" stroke="#ffcea3" d="M367,-503.83C367,-503.83 367,-478.41 367,-478.41"/>
<polygon fill="#ffcea3" stroke="#ffcea3" points="370.5,-478.41 367,-468.41 363.5,-478.41 370.5,-478.41"/>
</g>
<!-- Production&#45;&gt;R(t+dt) -->
<g id="edge12" class="edge">
<title>Production&#45;&gt;R(t+dt)</title>
<path fill="none" stroke="#ffcea3" d="M387,-431.99C387,-431.99 387,-46.09 387,-46.09"/>
<polygon fill="#ffcea3" stroke="#ffcea3" points="390.5,-46.09 387,-36.09 383.5,-46.09 390.5,-46.09"/>
</g>
<!-- Production&#45;&gt;Taxes -->
<g id="edge13" class="edge">
<title>Production&#45;&gt;Taxes</title>
<path fill="none" stroke="#aaffa3" d="M332.5,-431.83C332.5,-431.83 332.5,-406.41 332.5,-406.41"/>
<polygon fill="#aaffa3" stroke="#aaffa3" points="336,-406.41 332.5,-396.41 329,-406.41 336,-406.41"/>
</g>
<!-- Taxes&#45;&gt;Consumption -->
<g id="edge14" class="edge">
<title>Taxes&#45;&gt;Consumption</title>
<path fill="none" stroke="#aaffa3" d="M300.27,-378C297.82,-378 296.25,-378 296.25,-378 296.25,-378 296.25,-334.17 296.25,-334.17"/>
<polygon fill="#aaffa3" stroke="#aaffa3" points="299.75,-334.17 296.25,-324.17 292.75,-334.17 299.75,-334.17"/>
</g>
<!-- Taxes&#45;&gt;Diplomacy (wars/alliances) -->
<g id="edge16" class="edge">
<title>Taxes&#45;&gt;Diplomacy (wars/alliances)</title>
<path fill="none" stroke="#a3d3ff" d="M335.5,-359.98C335.5,-296.93 335.5,-90 335.5,-90 335.5,-90 300.24,-90 300.24,-90"/>
<polygon fill="#a3d3ff" stroke="#a3d3ff" points="300.24,-86.5 290.24,-90 300.24,-93.5 300.24,-86.5"/>
</g>
<!-- Power -->
<g id="node17" class="node">
<title>Power</title>
<polygon fill="none" stroke="black" points="289.5,-180 228.5,-180 228.5,-144 289.5,-144 289.5,-180"/>
<text text-anchor="middle" x="259" y="-158.3" font-family="Times,serif" font-size="14.00">Power</text>
</g>
<!-- Taxes&#45;&gt;Power -->
<g id="edge15" class="edge">
<title>Taxes&#45;&gt;Power</title>
<path fill="none" stroke="#a3d3ff" d="M318,-359.96C318,-308.04 318,-162 318,-162 318,-162 299.54,-162 299.54,-162"/>
<polygon fill="#a3d3ff" stroke="#a3d3ff" points="299.54,-158.5 289.54,-162 299.54,-165.5 299.54,-158.5"/>
</g>
<!-- Asabiya&#45;&gt;S(t+dt) -->
<g id="edge20" class="edge">
<title>Asabiya&#45;&gt;S(t+dt)</title>
<path fill="none" stroke="#b6a3ff" d="M295,-215.96C295,-215.96 295,-46.15 295,-46.15"/>
<polygon fill="#b6a3ff" stroke="#b6a3ff" points="298.5,-46.15 295,-36.15 291.5,-46.15 298.5,-46.15"/>
</g>
<!-- Asabiya&#45;&gt;Power -->
<g id="edge22" class="edge">
<title>Asabiya&#45;&gt;Power</title>
<path fill="none" stroke="#b6a3ff" d="M259,-215.83C259,-215.83 259,-190.41 259,-190.41"/>
<polygon fill="#b6a3ff" stroke="#b6a3ff" points="262.5,-190.41 259,-180.41 255.5,-190.41 262.5,-190.41"/>
</g>
<!-- Leader selection&#45;&gt;Diplomacy (wars/alliances) -->
<g id="edge24" class="edge">
<title>Leader selection&#45;&gt;Diplomacy (wars/alliances)</title>
<path fill="none" stroke="black" d="M108,-143.83C108,-143.83 108,-118.41 108,-118.41"/>
<polygon fill="black" stroke="black" points="111.5,-118.41 108,-108.41 104.5,-118.41 111.5,-118.41"/>
</g>
<!-- Diplomacy (wars/alliances)&#45;&gt;Z(t+dt) -->
<g id="edge19" class="edge">
<title>Diplomacy (wars/alliances)&#45;&gt;Z(t+dt)</title>
<path fill="none" stroke="#a3d3ff" d="M174.33,-71.83C174.33,-71.83 174.33,-46.41 174.33,-46.41"/>
<polygon fill="#a3d3ff" stroke="#a3d3ff" points="177.83,-46.41 174.33,-36.41 170.83,-46.41 177.83,-46.41"/>
</g>
<!-- Diplomacy (wars/alliances)&#45;&gt;Z(t+dt) -->
<g id="edge25" class="edge">
<title>Diplomacy (wars/alliances)&#45;&gt;Z(t+dt)</title>
<path fill="none" stroke="#aaffa3" d="M197.67,-71.83C197.67,-71.83 197.67,-46.41 197.67,-46.41"/>
<polygon fill="#aaffa3" stroke="#aaffa3" points="201.17,-46.41 197.67,-36.41 194.17,-46.41 201.17,-46.41"/>
</g>
<!-- Diplomacy (wars/alliances)&#45;&gt;N(t+dt) -->
<g id="edge10" class="edge">
<title>Diplomacy (wars/alliances)&#45;&gt;N(t+dt)</title>
<path fill="none" stroke="#ffa3a3" d="M107.5,-71.83C107.5,-71.83 107.5,-46.41 107.5,-46.41"/>
<polygon fill="#ffa3a3" stroke="#ffa3a3" points="111,-46.41 107.5,-36.41 104,-46.41 111,-46.41"/>
</g>
<!-- Power&#45;&gt;Diplomacy (wars/alliances) -->
<g id="edge23" class="edge">
<title>Power&#45;&gt;Diplomacy (wars/alliances)</title>
<path fill="none" stroke="black" d="M259,-143.83C259,-143.83 259,-118.41 259,-118.41"/>
<polygon fill="black" stroke="black" points="262.5,-118.41 259,-108.41 255.5,-118.41 262.5,-118.41"/>
</g>
</g>
</svg>
